<mxfile host="app.diagrams.net" agent="Mozilla/5.0 (Windows NT 10.0; Win64; x64) AppleWebKit/537.36 (KHTML, like Gecko) Chrome/129.0.0.0 Safari/537.36" version="24.7.16">
  <diagram name="Page-1" id="Ivh299RitRnoYVwxjOdh">
    <mxGraphModel dx="1669" dy="1582" grid="1" gridSize="10" guides="1" tooltips="1" connect="1" arrows="1" fold="1" page="1" pageScale="1" pageWidth="827" pageHeight="1169" math="0" shadow="0">
      <root>
        <mxCell id="0" />
        <mxCell id="1" parent="0" />
        <mxCell id="rn9WdZCYMhVPytGbhueB-57" value="" style="rounded=0;whiteSpace=wrap;html=1;" parent="1" vertex="1">
          <mxGeometry x="-400" y="80" width="320" height="242.5" as="geometry" />
        </mxCell>
        <mxCell id="rn9WdZCYMhVPytGbhueB-3" style="edgeStyle=orthogonalEdgeStyle;rounded=0;orthogonalLoop=1;jettySize=auto;html=1;entryX=0;entryY=0.5;entryDx=0;entryDy=0;" parent="1" source="rn9WdZCYMhVPytGbhueB-1" target="rn9WdZCYMhVPytGbhueB-2" edge="1">
          <mxGeometry relative="1" as="geometry" />
        </mxCell>
        <mxCell id="rn9WdZCYMhVPytGbhueB-1" value="Server" style="rounded=0;whiteSpace=wrap;html=1;" parent="1" vertex="1">
          <mxGeometry x="20" y="272.5" width="120" height="55" as="geometry" />
        </mxCell>
        <mxCell id="rn9WdZCYMhVPytGbhueB-15" style="edgeStyle=orthogonalEdgeStyle;rounded=0;orthogonalLoop=1;jettySize=auto;html=1;" parent="1" source="rn9WdZCYMhVPytGbhueB-2" target="rn9WdZCYMhVPytGbhueB-9" edge="1">
          <mxGeometry relative="1" as="geometry" />
        </mxCell>
        <mxCell id="rn9WdZCYMhVPytGbhueB-2" value="/post project" style="rounded=0;whiteSpace=wrap;html=1;" parent="1" vertex="1">
          <mxGeometry x="210" y="272.5" width="120" height="55" as="geometry" />
        </mxCell>
        <mxCell id="rn9WdZCYMhVPytGbhueB-5" style="edgeStyle=orthogonalEdgeStyle;rounded=0;orthogonalLoop=1;jettySize=auto;html=1;" parent="1" source="rn9WdZCYMhVPytGbhueB-4" target="rn9WdZCYMhVPytGbhueB-2" edge="1">
          <mxGeometry relative="1" as="geometry" />
        </mxCell>
        <mxCell id="rn9WdZCYMhVPytGbhueB-4" value="name: string&lt;div&gt;description string&lt;/div&gt;&lt;div&gt;techno : Array&amp;lt;ID&amp;gt;&lt;/div&gt;&lt;div&gt;file: image&lt;/div&gt;" style="rounded=0;whiteSpace=wrap;html=1;fillColor=#d5e8d4;strokeColor=#82b366;" parent="1" vertex="1">
          <mxGeometry x="210" y="160" width="120" height="67.5" as="geometry" />
        </mxCell>
        <mxCell id="rn9WdZCYMhVPytGbhueB-6" value="body" style="rounded=0;whiteSpace=wrap;html=1;fillColor=#d5e8d4;strokeColor=#82b366;" parent="1" vertex="1">
          <mxGeometry x="-380" y="127.5" width="50" height="20" as="geometry" />
        </mxCell>
        <mxCell id="rn9WdZCYMhVPytGbhueB-7" value="query" style="rounded=0;whiteSpace=wrap;html=1;fillColor=#e1d5e7;strokeColor=#9673a6;" parent="1" vertex="1">
          <mxGeometry x="-380" y="157.5" width="50" height="20" as="geometry" />
        </mxCell>
        <mxCell id="rn9WdZCYMhVPytGbhueB-8" value="params" style="rounded=0;whiteSpace=wrap;html=1;fillColor=#fff2cc;strokeColor=#d6b656;" parent="1" vertex="1">
          <mxGeometry x="-380" y="187.5" width="50" height="20" as="geometry" />
        </mxCell>
        <mxCell id="rn9WdZCYMhVPytGbhueB-13" style="edgeStyle=orthogonalEdgeStyle;rounded=0;orthogonalLoop=1;jettySize=auto;html=1;entryX=0.5;entryY=1;entryDx=0;entryDy=0;" parent="1" source="rn9WdZCYMhVPytGbhueB-9" target="rn9WdZCYMhVPytGbhueB-1" edge="1">
          <mxGeometry relative="1" as="geometry">
            <Array as="points">
              <mxPoint x="440" y="347.5" />
              <mxPoint x="80" y="347.5" />
            </Array>
          </mxGeometry>
        </mxCell>
        <mxCell id="rn9WdZCYMhVPytGbhueB-18" value="Error 401" style="edgeLabel;html=1;align=center;verticalAlign=middle;resizable=0;points=[];" parent="rn9WdZCYMhVPytGbhueB-13" vertex="1" connectable="0">
          <mxGeometry x="0.296" y="-1" relative="1" as="geometry">
            <mxPoint as="offset" />
          </mxGeometry>
        </mxCell>
        <mxCell id="rn9WdZCYMhVPytGbhueB-22" style="edgeStyle=orthogonalEdgeStyle;rounded=0;orthogonalLoop=1;jettySize=auto;html=1;entryX=0;entryY=0.5;entryDx=0;entryDy=0;" parent="1" source="rn9WdZCYMhVPytGbhueB-9" target="rn9WdZCYMhVPytGbhueB-16" edge="1">
          <mxGeometry relative="1" as="geometry" />
        </mxCell>
        <mxCell id="rn9WdZCYMhVPytGbhueB-9" value="Check auth and user is admin" style="rounded=0;whiteSpace=wrap;html=1;fillColor=#f8cecc;strokeColor=#b85450;" parent="1" vertex="1">
          <mxGeometry x="380" y="272.5" width="120" height="55" as="geometry" />
        </mxCell>
        <mxCell id="rn9WdZCYMhVPytGbhueB-10" value="" style="endArrow=none;html=1;rounded=0;strokeColor=#CCCCCC;strokeWidth=3;" parent="1" edge="1">
          <mxGeometry width="50" height="50" relative="1" as="geometry">
            <mxPoint x="360" y="620" as="sourcePoint" />
            <mxPoint x="360" y="30" as="targetPoint" />
          </mxGeometry>
        </mxCell>
        <mxCell id="rn9WdZCYMhVPytGbhueB-11" value="&lt;font style=&quot;font-size: 17px;&quot;&gt;CONTROLLER&lt;/font&gt;" style="text;html=1;align=center;verticalAlign=middle;whiteSpace=wrap;rounded=0;" parent="1" vertex="1">
          <mxGeometry x="483" y="-186.25" width="150" height="40" as="geometry" />
        </mxCell>
        <mxCell id="rn9WdZCYMhVPytGbhueB-12" value="control" style="rounded=0;whiteSpace=wrap;html=1;fillColor=#f8cecc;strokeColor=#b85450;" parent="1" vertex="1">
          <mxGeometry x="-320" y="127.5" width="50" height="20" as="geometry" />
        </mxCell>
        <mxCell id="rn9WdZCYMhVPytGbhueB-14" value="NOK" style="text;html=1;align=center;verticalAlign=middle;whiteSpace=wrap;rounded=0;fontColor=#FF0000;" parent="1" vertex="1">
          <mxGeometry x="390" y="322.5" width="60" height="30" as="geometry" />
        </mxCell>
        <mxCell id="rn9WdZCYMhVPytGbhueB-28" style="edgeStyle=orthogonalEdgeStyle;rounded=0;orthogonalLoop=1;jettySize=auto;html=1;entryX=0;entryY=0.5;entryDx=0;entryDy=0;" parent="1" source="rn9WdZCYMhVPytGbhueB-16" target="rn9WdZCYMhVPytGbhueB-27" edge="1">
          <mxGeometry relative="1" as="geometry" />
        </mxCell>
        <mxCell id="rn9WdZCYMhVPytGbhueB-16" value="Check ID of techno exists&amp;nbsp;" style="rounded=0;whiteSpace=wrap;html=1;fillColor=#f8cecc;strokeColor=#b85450;" parent="1" vertex="1">
          <mxGeometry x="560" y="272.5" width="120" height="55" as="geometry" />
        </mxCell>
        <mxCell id="rn9WdZCYMhVPytGbhueB-17" value="" style="endArrow=none;html=1;rounded=0;strokeColor=#CCCCCC;strokeWidth=3;" parent="1" edge="1">
          <mxGeometry width="50" height="50" relative="1" as="geometry">
            <mxPoint x="710" y="630" as="sourcePoint" />
            <mxPoint x="710" y="30" as="targetPoint" />
          </mxGeometry>
        </mxCell>
        <mxCell id="rn9WdZCYMhVPytGbhueB-19" value="&lt;font style=&quot;font-size: 17px;&quot;&gt;SERVICE&lt;/font&gt;" style="text;html=1;align=center;verticalAlign=middle;whiteSpace=wrap;rounded=0;" parent="1" vertex="1">
          <mxGeometry x="890" y="-186.25" width="150" height="40" as="geometry" />
        </mxCell>
        <mxCell id="rn9WdZCYMhVPytGbhueB-23" style="edgeStyle=orthogonalEdgeStyle;rounded=0;orthogonalLoop=1;jettySize=auto;html=1;entryX=0.38;entryY=1.018;entryDx=0;entryDy=0;entryPerimeter=0;" parent="1" source="rn9WdZCYMhVPytGbhueB-16" target="rn9WdZCYMhVPytGbhueB-1" edge="1">
          <mxGeometry relative="1" as="geometry">
            <Array as="points">
              <mxPoint x="620" y="367.5" />
              <mxPoint x="66" y="367.5" />
            </Array>
          </mxGeometry>
        </mxCell>
        <mxCell id="rn9WdZCYMhVPytGbhueB-24" value="Error 404" style="edgeLabel;html=1;align=center;verticalAlign=middle;resizable=0;points=[];" parent="rn9WdZCYMhVPytGbhueB-23" vertex="1" connectable="0">
          <mxGeometry x="0.376" y="-1" relative="1" as="geometry">
            <mxPoint as="offset" />
          </mxGeometry>
        </mxCell>
        <mxCell id="rn9WdZCYMhVPytGbhueB-25" value="NOK" style="text;html=1;align=center;verticalAlign=middle;whiteSpace=wrap;rounded=0;fontColor=#FF0000;" parent="1" vertex="1">
          <mxGeometry x="573" y="321.5" width="60" height="30" as="geometry" />
        </mxCell>
        <mxCell id="rn9WdZCYMhVPytGbhueB-26" value="OK" style="text;html=1;align=center;verticalAlign=middle;whiteSpace=wrap;rounded=0;fontColor=#009900;" parent="1" vertex="1">
          <mxGeometry x="483" y="275.5" width="60" height="30" as="geometry" />
        </mxCell>
        <mxCell id="rn9WdZCYMhVPytGbhueB-39" style="edgeStyle=orthogonalEdgeStyle;rounded=0;orthogonalLoop=1;jettySize=auto;html=1;" parent="1" source="rn9WdZCYMhVPytGbhueB-27" target="rn9WdZCYMhVPytGbhueB-33" edge="1">
          <mxGeometry relative="1" as="geometry">
            <mxPoint x="910" y="300" as="targetPoint" />
          </mxGeometry>
        </mxCell>
        <mxCell id="rn9WdZCYMhVPytGbhueB-27" value="control name and description is correct" style="rounded=0;whiteSpace=wrap;html=1;fillColor=#f8cecc;strokeColor=#b85450;" parent="1" vertex="1">
          <mxGeometry x="740" y="272.5" width="120" height="55" as="geometry" />
        </mxCell>
        <mxCell id="rn9WdZCYMhVPytGbhueB-29" style="edgeStyle=orthogonalEdgeStyle;rounded=0;orthogonalLoop=1;jettySize=auto;html=1;entryX=0.18;entryY=1.006;entryDx=0;entryDy=0;entryPerimeter=0;" parent="1" source="rn9WdZCYMhVPytGbhueB-27" target="rn9WdZCYMhVPytGbhueB-1" edge="1">
          <mxGeometry relative="1" as="geometry">
            <Array as="points">
              <mxPoint x="800" y="387.5" />
              <mxPoint x="42" y="387.5" />
            </Array>
          </mxGeometry>
        </mxCell>
        <mxCell id="rn9WdZCYMhVPytGbhueB-45" value="Error 405" style="edgeLabel;html=1;align=center;verticalAlign=middle;resizable=0;points=[];" parent="rn9WdZCYMhVPytGbhueB-29" vertex="1" connectable="0">
          <mxGeometry x="-0.1276" relative="1" as="geometry">
            <mxPoint as="offset" />
          </mxGeometry>
        </mxCell>
        <mxCell id="rn9WdZCYMhVPytGbhueB-31" value="NOK" style="text;html=1;align=center;verticalAlign=middle;whiteSpace=wrap;rounded=0;fontColor=#FF0000;" parent="1" vertex="1">
          <mxGeometry x="752" y="322.5" width="60" height="30" as="geometry" />
        </mxCell>
        <mxCell id="rn9WdZCYMhVPytGbhueB-32" value="OK" style="text;html=1;align=center;verticalAlign=middle;whiteSpace=wrap;rounded=0;fontColor=#009900;" parent="1" vertex="1">
          <mxGeometry x="660" y="275" width="60" height="30" as="geometry" />
        </mxCell>
        <mxCell id="XzdNKWaJprYKKExX68f9-53" style="edgeStyle=orthogonalEdgeStyle;rounded=0;orthogonalLoop=1;jettySize=auto;html=1;entryX=1;entryY=0.5;entryDx=0;entryDy=0;" edge="1" parent="1" source="rn9WdZCYMhVPytGbhueB-33" target="XzdNKWaJprYKKExX68f9-51">
          <mxGeometry relative="1" as="geometry">
            <Array as="points">
              <mxPoint x="990" y="194" />
            </Array>
          </mxGeometry>
        </mxCell>
        <mxCell id="XzdNKWaJprYKKExX68f9-54" style="edgeStyle=orthogonalEdgeStyle;rounded=0;orthogonalLoop=1;jettySize=auto;html=1;entryX=1;entryY=0.5;entryDx=0;entryDy=0;" edge="1" parent="1" source="rn9WdZCYMhVPytGbhueB-33" target="XzdNKWaJprYKKExX68f9-52">
          <mxGeometry relative="1" as="geometry">
            <Array as="points">
              <mxPoint x="990" y="123" />
            </Array>
          </mxGeometry>
        </mxCell>
        <mxCell id="rn9WdZCYMhVPytGbhueB-33" value="Request to database to save new project" style="rounded=0;whiteSpace=wrap;html=1;" parent="1" vertex="1">
          <mxGeometry x="930" y="273" width="120" height="55" as="geometry" />
        </mxCell>
        <mxCell id="rn9WdZCYMhVPytGbhueB-41" value="&lt;span class=&quot;hljs-keyword&quot;&gt;await&lt;/span&gt; pool.&lt;span class=&quot;hljs-title function_&quot;&gt;query&lt;/span&gt;(query, values)" style="text;html=1;align=left;verticalAlign=middle;whiteSpace=wrap;rounded=0;" parent="1" vertex="1">
          <mxGeometry x="1070" y="305" width="180" height="30" as="geometry" />
        </mxCell>
        <mxCell id="rn9WdZCYMhVPytGbhueB-42" value="query =&amp;nbsp;&#39;INSERT INTO projects (name, description) VALUES ($1, $2) RETURNING *&#39;" style="text;html=1;align=left;verticalAlign=middle;whiteSpace=wrap;rounded=0;" parent="1" vertex="1">
          <mxGeometry x="1070" y="265" width="460" height="30" as="geometry" />
        </mxCell>
        <mxCell id="rn9WdZCYMhVPytGbhueB-43" value="values : [body.name, body.description]" style="text;html=1;align=left;verticalAlign=middle;whiteSpace=wrap;rounded=0;" parent="1" vertex="1">
          <mxGeometry x="1070" y="285" width="440" height="30" as="geometry" />
        </mxCell>
        <mxCell id="rn9WdZCYMhVPytGbhueB-46" style="edgeStyle=orthogonalEdgeStyle;rounded=0;orthogonalLoop=1;jettySize=auto;html=1;entryX=0.087;entryY=1.007;entryDx=0;entryDy=0;entryPerimeter=0;" parent="1" source="rn9WdZCYMhVPytGbhueB-33" target="rn9WdZCYMhVPytGbhueB-1" edge="1">
          <mxGeometry relative="1" as="geometry">
            <Array as="points">
              <mxPoint x="1000" y="418" />
              <mxPoint x="30" y="418" />
            </Array>
          </mxGeometry>
        </mxCell>
        <mxCell id="rn9WdZCYMhVPytGbhueB-47" value="NOK" style="text;html=1;align=center;verticalAlign=middle;whiteSpace=wrap;rounded=0;fontColor=#FF0000;" parent="1" vertex="1">
          <mxGeometry x="950" y="330" width="60" height="30" as="geometry" />
        </mxCell>
        <mxCell id="rn9WdZCYMhVPytGbhueB-48" value="OK" style="text;html=1;align=center;verticalAlign=middle;whiteSpace=wrap;rounded=0;fontColor=#009900;" parent="1" vertex="1">
          <mxGeometry x="850" y="275.5" width="60" height="30" as="geometry" />
        </mxCell>
        <mxCell id="rn9WdZCYMhVPytGbhueB-52" value="response return" style="swimlane;fontStyle=0;childLayout=stackLayout;horizontal=1;startSize=30;horizontalStack=0;resizeParent=1;resizeParentMax=0;resizeLast=0;collapsible=1;marginBottom=0;whiteSpace=wrap;html=1;" parent="1" vertex="1">
          <mxGeometry x="1540" y="251" width="140" height="120" as="geometry" />
        </mxCell>
        <mxCell id="rn9WdZCYMhVPytGbhueB-53" value="id : number" style="text;strokeColor=none;fillColor=none;align=left;verticalAlign=middle;spacingLeft=4;spacingRight=4;overflow=hidden;points=[[0,0.5],[1,0.5]];portConstraint=eastwest;rotatable=0;whiteSpace=wrap;html=1;" parent="rn9WdZCYMhVPytGbhueB-52" vertex="1">
          <mxGeometry y="30" width="140" height="30" as="geometry" />
        </mxCell>
        <mxCell id="rn9WdZCYMhVPytGbhueB-54" value="name: string" style="text;strokeColor=none;fillColor=none;align=left;verticalAlign=middle;spacingLeft=4;spacingRight=4;overflow=hidden;points=[[0,0.5],[1,0.5]];portConstraint=eastwest;rotatable=0;whiteSpace=wrap;html=1;" parent="rn9WdZCYMhVPytGbhueB-52" vertex="1">
          <mxGeometry y="60" width="140" height="30" as="geometry" />
        </mxCell>
        <mxCell id="rn9WdZCYMhVPytGbhueB-55" value="description : string" style="text;strokeColor=none;fillColor=none;align=left;verticalAlign=middle;spacingLeft=4;spacingRight=4;overflow=hidden;points=[[0,0.5],[1,0.5]];portConstraint=eastwest;rotatable=0;whiteSpace=wrap;html=1;" parent="rn9WdZCYMhVPytGbhueB-52" vertex="1">
          <mxGeometry y="90" width="140" height="30" as="geometry" />
        </mxCell>
        <mxCell id="rn9WdZCYMhVPytGbhueB-56" value="Add New Project" style="text;html=1;align=left;verticalAlign=middle;whiteSpace=wrap;rounded=0;fontStyle=1;fontSize=33;" parent="1" vertex="1">
          <mxGeometry x="40" y="-190" width="380" height="30" as="geometry" />
        </mxCell>
        <mxCell id="rn9WdZCYMhVPytGbhueB-58" value="Caption" style="text;html=1;align=center;verticalAlign=middle;whiteSpace=wrap;rounded=0;" parent="1" vertex="1">
          <mxGeometry x="-390" y="92.5" width="60" height="30" as="geometry" />
        </mxCell>
        <mxCell id="rn9WdZCYMhVPytGbhueB-59" value="OK" style="text;html=1;align=center;verticalAlign=middle;whiteSpace=wrap;rounded=0;fontColor=#009900;" parent="1" vertex="1">
          <mxGeometry x="940" y="245" width="60" height="30" as="geometry" />
        </mxCell>
        <mxCell id="XzdNKWaJprYKKExX68f9-50" value="service" style="rounded=0;whiteSpace=wrap;html=1;fillColor=#dae8fc;strokeColor=#6c8ebf;" vertex="1" parent="1">
          <mxGeometry x="-150" y="127.5" width="45" height="22.5" as="geometry" />
        </mxCell>
        <mxCell id="XzdNKWaJprYKKExX68f9-57" style="edgeStyle=orthogonalEdgeStyle;rounded=0;orthogonalLoop=1;jettySize=auto;html=1;" edge="1" parent="1" source="XzdNKWaJprYKKExX68f9-51" target="rn9WdZCYMhVPytGbhueB-1">
          <mxGeometry relative="1" as="geometry">
            <Array as="points">
              <mxPoint x="600" y="194" />
              <mxPoint x="600" y="250" />
              <mxPoint x="80" y="250" />
            </Array>
          </mxGeometry>
        </mxCell>
        <mxCell id="XzdNKWaJprYKKExX68f9-66" style="edgeStyle=orthogonalEdgeStyle;rounded=0;orthogonalLoop=1;jettySize=auto;html=1;" edge="1" parent="1" source="XzdNKWaJprYKKExX68f9-51">
          <mxGeometry relative="1" as="geometry">
            <mxPoint x="814" y="150" as="targetPoint" />
          </mxGeometry>
        </mxCell>
        <mxCell id="XzdNKWaJprYKKExX68f9-51" value="using service to add many project technos" style="rounded=0;whiteSpace=wrap;html=1;fillColor=#dae8fc;strokeColor=#6c8ebf;" vertex="1" parent="1">
          <mxGeometry x="754" y="169.38" width="120" height="48.75" as="geometry" />
        </mxCell>
        <mxCell id="XzdNKWaJprYKKExX68f9-58" style="edgeStyle=orthogonalEdgeStyle;rounded=0;orthogonalLoop=1;jettySize=auto;html=1;" edge="1" parent="1" source="XzdNKWaJprYKKExX68f9-52" target="rn9WdZCYMhVPytGbhueB-1">
          <mxGeometry relative="1" as="geometry">
            <Array as="points">
              <mxPoint x="600" y="123" />
              <mxPoint x="600" y="250" />
              <mxPoint x="80" y="250" />
            </Array>
          </mxGeometry>
        </mxCell>
        <mxCell id="XzdNKWaJprYKKExX68f9-59" value="Response 201" style="edgeLabel;html=1;align=center;verticalAlign=middle;resizable=0;points=[];" vertex="1" connectable="0" parent="XzdNKWaJprYKKExX68f9-58">
          <mxGeometry x="0.0795" y="1" relative="1" as="geometry">
            <mxPoint as="offset" />
          </mxGeometry>
        </mxCell>
        <mxCell id="XzdNKWaJprYKKExX68f9-68" style="edgeStyle=orthogonalEdgeStyle;rounded=0;orthogonalLoop=1;jettySize=auto;html=1;entryX=0.25;entryY=0;entryDx=0;entryDy=0;" edge="1" parent="1" source="XzdNKWaJprYKKExX68f9-52" target="rn9WdZCYMhVPytGbhueB-1">
          <mxGeometry relative="1" as="geometry">
            <Array as="points">
              <mxPoint x="812" y="80" />
              <mxPoint x="50" y="80" />
            </Array>
          </mxGeometry>
        </mxCell>
        <mxCell id="XzdNKWaJprYKKExX68f9-73" value="Response 201" style="edgeLabel;html=1;align=center;verticalAlign=middle;resizable=0;points=[];" vertex="1" connectable="0" parent="XzdNKWaJprYKKExX68f9-68">
          <mxGeometry x="-0.0699" y="2" relative="1" as="geometry">
            <mxPoint x="62" y="-2" as="offset" />
          </mxGeometry>
        </mxCell>
        <mxCell id="XzdNKWaJprYKKExX68f9-52" value="using service to add one project-img" style="rounded=0;whiteSpace=wrap;html=1;fillColor=#dae8fc;strokeColor=#6c8ebf;" vertex="1" parent="1">
          <mxGeometry x="752" y="98.75" width="120" height="48.75" as="geometry" />
        </mxCell>
        <mxCell id="XzdNKWaJprYKKExX68f9-55" value="need :&lt;div&gt;&lt;i&gt;project ID&lt;/i&gt;&lt;/div&gt;&lt;div&gt;&lt;i&gt;image&lt;/i&gt;&lt;/div&gt;" style="text;html=1;align=center;verticalAlign=middle;whiteSpace=wrap;rounded=0;" vertex="1" parent="1">
          <mxGeometry x="882" y="63.75" width="100" height="58.75" as="geometry" />
        </mxCell>
        <mxCell id="XzdNKWaJprYKKExX68f9-56" value="need :&lt;div&gt;&lt;i&gt;project ID&lt;/i&gt;&lt;/div&gt;&lt;div&gt;&lt;i&gt;Array of ID project&lt;/i&gt;&lt;/div&gt;" style="text;html=1;align=center;verticalAlign=middle;whiteSpace=wrap;rounded=0;" vertex="1" parent="1">
          <mxGeometry x="885" y="138.12" width="100" height="58.75" as="geometry" />
        </mxCell>
        <mxCell id="XzdNKWaJprYKKExX68f9-60" value="OK" style="text;html=1;align=center;verticalAlign=middle;whiteSpace=wrap;rounded=0;fontColor=#009900;" vertex="1" parent="1">
          <mxGeometry x="700" y="169.38" width="60" height="30" as="geometry" />
        </mxCell>
        <mxCell id="XzdNKWaJprYKKExX68f9-61" value="OK" style="text;html=1;align=center;verticalAlign=middle;whiteSpace=wrap;rounded=0;fontColor=#009900;" vertex="1" parent="1">
          <mxGeometry x="700" y="96.5" width="60" height="30" as="geometry" />
        </mxCell>
        <mxCell id="XzdNKWaJprYKKExX68f9-69" value="NOK" style="text;html=1;align=center;verticalAlign=middle;whiteSpace=wrap;rounded=0;fontColor=#FF0000;" vertex="1" parent="1">
          <mxGeometry x="762" y="76" width="60" height="30" as="geometry" />
        </mxCell>
        <mxCell id="XzdNKWaJprYKKExX68f9-74" value="But say which services fails" style="text;html=1;align=center;verticalAlign=middle;whiteSpace=wrap;rounded=0;" vertex="1" parent="1">
          <mxGeometry x="400" y="90" width="160" height="30" as="geometry" />
        </mxCell>
      </root>
    </mxGraphModel>
  </diagram>
</mxfile>
